<?xml version="1.0" standalone="no"?><!DOCTYPE svg PUBLIC "-//W3C//DTD SVG 1.1//EN" "http://www.w3.org/Graphics/SVG/1.1/DTD/svg11.dtd"><svg t="1640246671928" class="icon" viewBox="0 0 1024 1024" version="1.1" xmlns="http://www.w3.org/2000/svg" p-id="1261" xmlns:xlink="http://www.w3.org/1999/xlink" width="200" height="200"><defs><style type="text/css"></style></defs><path d="M572.98944 620.76928c92.42624-70.83008 152.79104-85.63712 181.10464-44.42112 60.08832-32.41984 94.65856-25.42592 103.72096 20.98176 84.9408-38.53312 118.2208-23.88992 99.84 43.9296l-362.5984 248.0128c-36.02432 15.80032-70.48192 15.80032-103.3728 0-32.90112-15.79008-96.75776-48.44544-191.58016-97.96608-17.33632-12.17536-35.38944-12.17536-54.14912 0-18.75968 12.16512-58.22464 35.20512-118.38464 69.09952L71.68 620.76928l174.27456-82.0224c50.9952-12.6976 96.0512-6.10304 135.13728 19.7632 79.95392 66.22208 139.95008 99.328 179.97824 99.328 60.03712 0 149.11488-12.25728 137.70752 46.0288-6.51264 16.5888-34.00704 24.89344-82.49344 24.89344-72.71424 0-188.50816 5.76512-235.19232-24.8832 40.92928 40.0896 83.13856 60.14976 126.64832 60.14976h140.1856c50.54464-6.15424 78.9504-31.56992 85.1968-76.24704-6.85056-37.9904-35.24608-60.3136-85.1968-67.01056h-74.93632zM521.29792 61.44c124.0064 40.3456 193.04448 62.78144 207.104 67.29728 14.04928 4.51584 23.83872 15.0528 29.35808 31.5904V292.864c0 74.72128-35.2256 136.17152-105.6768 184.3712L534.3232 552.96l-106.40384-57.22112C352.72704 456.0896 309.07392 388.47488 296.96 292.864V160.32768c0-15.72864 10.42432-26.25536 31.27296-31.5904L521.29792 61.44z m42.9056 198.43072l48.6912-45.40416a17.92 17.92 0 0 0-24.44288-26.2144l-67.08224 62.5664-66.57024-64.28672a17.92 17.92 0 0 0-24.89344 25.77408l49.2544 47.5648H427.52a17.92 17.92 0 0 0 0 35.84H501.76v35.84h-84.48a17.92 17.92 0 0 0 0 35.84H501.76v56.32a20.48 20.48 0 1 0 40.96 0v-56.32h74.24a17.92 17.92 0 0 0 0-35.84H542.72v-35.84h84.48a17.92 17.92 0 0 0 0-35.84h-62.98624z" p-id="1262"></path></svg>